<svg xmlns="http://www.w3.org/2000/svg" width="108" height="23" viewBox="0 0 108 23">
  <g fill="none" fill-rule="evenodd">
    <rect width="107.9" height="22.1" fill="#2D8CFF" rx="5.2"/>
    <text fill="#FFF" font-family="VisueltPro-Bold, Visuelt Pro" font-size="9.1" font-weight="bold">
      <tspan x="31.587" y="14.2">Schedule Zoom</tspan>
    </text>
    <path fill="#FFF" fill-rule="nonzero" d="M13.4289474,0.0666666667 L10.3157895,1.88333333 L10.3157895,1.33333333 C10.3157895,0.6 9.65263158,0 8.84210526,0 L1.47368421,0 C0.663157895,0 0,0.6 0,1.33333333 L0,6.66666667 C0,7.4 0.663157895,8 1.47368421,8 L8.84210526,8 C9.65263158,8 10.3157895,7.4 10.3157895,6.66666667 L10.3157895,6.11666667 L13.4289474,7.93333333 C13.7789474,8.1 14,7.81666667 14,7.65 L14,0.333333333 C14,0.166666667 13.7973684,-0.133333333 13.4289474,0.0666666667 Z M9.57894737,6.66666667 C9.57894737,7.03333333 9.24736842,7.33333333 8.84210526,7.33333333 L1.47368421,7.33333333 C1.06842105,7.33333333 0.736842105,7.03333333 0.736842105,6.66666667 L0.736842105,1.33333333 C0.736842105,0.966666667 1.06842105,0.666666667 1.47368421,0.666666667 L8.84210526,0.666666667 C9.24736842,0.666666667 9.57894737,0.966666667 9.57894737,1.33333333 L9.57894737,6.66666667 Z M13.2631579,7.05 L10.3157895,5.33333333 L10.3157895,2.66666667 L13.2631579,0.95 L13.2631579,7.05 Z" transform="translate(12 7)"/>
  </g>
</svg>
