<svg xmlns="http://www.w3.org/2000/svg" width="15" height="15" viewBox="0 0 15 15">
  <path fill="#B9B9B9" d="M4.68772887,12.3925781 L2.63694762,12.3925781 L2.63694762,5.77148437 L4.68772887,5.77148437 L4.68772887,12.3925781 Z M4.89234926,3.66199494 C4.89234926,2.99903871 4.35447691,2.4609375 3.69186401,2.4609375 C3.0267334,2.4609375 2.49023437,2.99903871 2.49023437,3.66199494 C2.49023437,4.32518004 3.0267334,4.86328125 3.69186401,4.86328125 C4.35447691,4.86328125 4.89234926,4.32518004 4.89234926,3.66199494 Z M12.3632813,8.74992369 C12.3632813,6.97254182 11.9878006,5.65429688 9.91149902,5.65429688 C8.91380309,5.65429688 8.24409486,6.15325928 7.97069549,6.67213441 L7.96875,6.67213441 L7.96875,5.77148438 L5.9765625,5.77148438 L5.9765625,12.3925781 L7.96875,12.3925781 L7.96875,9.1051483 C7.96875,8.2442093 8.18790437,7.41016389 9.25506592,7.41016389 C10.3076935,7.41016389 10.3417969,8.39469908 10.3417969,9.15985107 L10.3417969,12.3925781 L12.3632813,12.3925781 L12.3632813,8.74992369 Z M15,13.2421875 L15,1.7578125 C15,0.78849791 14.2115021,0 13.2421875,0 L1.7578125,0 C0.78849791,0 0,0.78849791 0,1.7578125 L0,13.2421875 C0,14.2115021 0.78849791,15 1.7578125,15 L13.2421875,15 C14.2115021,15 15,14.2115021 15,13.2421875 Z M13.2421875,1.171875 C13.5652542,1.171875 13.828125,1.43474578 13.828125,1.7578125 L13.828125,13.2421875 C13.828125,13.5652542 13.5652542,13.828125 13.2421875,13.828125 L1.7578125,13.828125 C1.43474578,13.828125 1.171875,13.5652542 1.171875,13.2421875 L1.171875,1.7578125 C1.171875,1.43474578 1.43474578,1.171875 1.7578125,1.171875 L13.2421875,1.171875 Z"/>
</svg>
