<svg xmlns="http://www.w3.org/2000/svg" width="109" height="15" viewBox="0 0 109 15">
  <g fill="none" fill-rule="evenodd" transform="translate(0 -1)">
    <path fill="#B9B9B9" fill-rule="nonzero" d="M15,5.80078125 L15,7.88085937 C15,8.64006041 14.3822479,9.2578125 13.6230469,9.2578125 C13.3288193,9.2578125 13.0559921,9.16477204 12.8320312,9.00695801 C12.6080704,9.16477204 12.3352432,9.2578125 12.0410156,9.2578125 C11.2818146,9.2578125 10.6640625,8.64006041 10.6640625,7.88085937 L10.6640625,5.80078125 L11.8359375,5.80078125 L11.8359375,7.88085937 C11.8359375,7.993927 11.927948,8.0859375 12.0410156,8.0859375 C12.1540833,8.0859375 12.2460937,7.993927 12.2460937,7.88085937 L12.2460937,5.80078125 L13.4179687,5.80078125 L13.4179687,7.88085937 C13.4179687,7.993927 13.5099792,8.0859375 13.6230469,8.0859375 C13.7361145,8.0859375 13.828125,7.993927 13.828125,7.88085937 L13.828125,5.80078125 L15,5.80078125 Z M2.16796875,9.00695801 C2.39192962,9.16477204 2.66475677,9.2578125 2.95898437,9.2578125 C3.71818541,9.2578125 4.3359375,8.64006041 4.3359375,7.88085937 L4.3359375,5.80078125 L3.1640625,5.80078125 L3.1640625,7.88085937 C3.1640625,7.993927 3.072052,8.0859375 2.95898437,8.0859375 C2.84591675,8.0859375 2.75390625,7.993927 2.75390625,7.88085937 L2.75390625,5.80078125 L1.58203125,5.80078125 L1.58203125,7.88085937 C1.58203125,7.993927 1.49002075,8.0859375 1.37695312,8.0859375 C1.2638855,8.0859375 1.171875,7.993927 1.171875,7.88085937 L1.171875,5.80078125 L0,5.80078125 L0,7.88085937 C0,8.64006041 0.61775209,9.2578125 1.37695312,9.2578125 C1.67118073,9.2578125 1.94400788,9.16477204 2.16796875,9.00695801 Z M5.390625,5.80078125 L5.390625,7.88085937 C5.390625,8.64006041 6.00837709,9.2578125 6.76757812,9.2578125 C7.06180573,9.2578125 7.33463288,9.16477204 7.55859375,9.00695801 C7.78255462,9.16477204 8.05538177,9.2578125 8.34960937,9.2578125 C9.10881041,9.2578125 9.7265625,8.64006041 9.7265625,7.88085937 L9.7265625,5.80078125 L8.5546875,5.80078125 L8.5546875,7.88085937 C8.5546875,7.993927 8.462677,8.0859375 8.34960937,8.0859375 C8.23654175,8.0859375 8.14453125,7.993927 8.14453125,7.88085937 L8.14453125,5.80078125 L6.97265625,5.80078125 L6.97265625,7.88085937 C6.97265625,7.993927 6.88064575,8.0859375 6.76757812,8.0859375 C6.6545105,8.0859375 6.5625,7.993927 6.5625,7.88085937 L6.5625,5.80078125 L5.390625,5.80078125 Z M14.5339966,4.62879182 L0.524597168,4.62879182 L1.03328704,3.74954224 C1.68079377,2.63019562 2.61188508,1.69143677 3.72596742,1.03466033 C4.87426758,0.357856758 6.18942261,0 7.52929687,0 C8.86917114,0 10.1843262,0.357856758 11.3326263,1.03466033 C12.4465942,1.69143677 13.3778,2.63019562 14.0253067,3.74954224 L14.5339966,4.62879182 Z M5.35091399,3.45691682 L6.94335937,3.45691682 L6.94335937,1.32144929 C6.33968353,1.62769318 5.76953889,2.38861084 5.35091399,3.45691682 Z M8.11523437,3.45691682 L9.70767976,3.45691682 C9.28905486,2.38861084 8.71891022,1.62769318 8.11523437,1.32144929 L8.11523437,3.45691682 Z M2.66189575,3.45691682 L4.10408021,3.45691682 C4.32334898,2.80391692 4.5904541,2.23125457 4.8958969,1.74968719 C4.03930664,2.14279175 3.27266692,2.72415161 2.66189575,3.45691682 Z M12.396698,3.45691682 C11.7859268,2.72415161 11.0192871,2.14279175 10.1626968,1.74968719 C10.4681396,2.23125457 10.7352448,2.80391692 10.9545135,3.45691682 L12.396698,3.45691682 Z M0.524482734,10.3709793 L14.5339966,10.3709793 L14.0253067,11.2503433 C13.3778,12.3696899 12.4467087,13.3085632 11.3326263,13.9652252 C10.1843262,14.6421432 8.86917114,15 7.52929687,15 C6.18942261,15 4.87426758,14.6421432 3.72596742,13.9652252 C2.61188508,13.3085632 1.68067934,12.3696899 1.03328704,11.2503433 L0.524482734,10.3709793 Z M9.70767976,11.5428543 L8.11523437,11.5428543 L8.11523437,13.6785507 C8.71891022,13.3723068 9.28905486,12.6113892 9.70767976,11.5428543 Z M6.94335938,11.5428543 L5.35091399,11.5428543 C5.76953889,12.6113892 6.33968353,13.3723068 6.94335938,13.6785507 L6.94335938,11.5428543 Z M12.3968124,11.5428543 L10.9545135,11.5428543 C10.7353592,12.1959686 10.4681396,12.7687454 10.1626968,13.2503128 C11.0192871,12.8570938 11.7860413,12.275734 12.3968124,11.5428543 Z M2.66178132,11.5428543 C3.27255249,12.275734 4.03919221,12.8570938 4.8958969,13.2503128 C4.5904541,12.7687454 4.32323455,12.1959686 4.10408021,11.5428543 L2.66178132,11.5428543 Z" transform="translate(0 1)"/>
    <text fill="#9B9B9B" font-family="VisueltPro-Light, Visuelt Pro" font-size="14" font-weight="300">
      <tspan x="19" y="13">amirazimit.com</tspan>
    </text>
  </g>
</svg>
