<svg xmlns="http://www.w3.org/2000/svg" width="16" height="14" viewBox="0 0 16 14">
  <path fill="#B9B9B9" d="M16,1.64871335 C15.4008789,1.93458322 14.7445068,2.10426503 14.09375,2.18706873 C14.7790527,1.74531766 15.2862549,1.05397261 15.53125,0.235530479 C14.8868408,0.647183079 14.208374,0.954345308 13.4732666,1.11035797 C12.8380127,0.38299988 11.9844971,0 11.125,0 C10.28125,0 9.47509766,0.306373639 8.82873534,0.960917046 C8.16174316,1.63622707 7.78259278,2.57046292 7.78125,3.53295718 C7.78088378,3.80082055 7.82141113,4.07078683 7.87902831,4.33799299 C5.23962403,4.19551808 2.79187012,2.84739525 1.125,0.639297014 C0.822875969,1.19933906 0.655883781,1.81786946 0.65625,2.42259921 C0.656982437,3.56160987 1.18273925,4.67236215 2.125,5.34990659 C1.60253906,5.33321441 1.08154297,5.22018081 0.625,4.94614006 L0.625,5.0105429 C0.625488281,6.69303493 1.74951172,8.07861656 3.28125,8.41180282 C3.01062012,8.49132063 2.65966797,8.54757456 2.37780762,8.54757456 C2.37683106,8.54757456 2.3758545,8.54757456 2.375,8.54757456 C2.15466309,8.54718028 1.93432619,8.52378494 1.71875,8.47909724 C2.14880372,9.91896131 3.47058106,10.9742482 4.875,11.0026381 C3.7126465,11.9862933 1.90625,12.4494682 0.781494125,12.4494682 C0.520263687,12.4489424 0.259277344,12.4492053 0,12.415821 C1.49768066,13.4506041 3.23986816,13.9972399 5.01916503,13.9972399 L5.03161622,13.9972399 L5.03161622,14 C11.03125,14 14.375,8.61250318 14.375,3.94171824 C14.375,3.78872855 14.3533936,3.61720664 14.34375,3.46566276 C14.9862061,2.96529192 15.5592041,2.35845921 16,1.64871335 Z M12.5892334,7.00860896 C12.2210693,8.05929572 11.6920166,9.00877796 11.0168457,9.8307688 C10.3009033,10.7023104 9.45288087,11.386558 8.49658203,11.8643221 C7.51257325,12.3558869 6.42590331,12.62007 5.26342775,12.6509571 L5.02941894,12.6513514 L5.01916503,12.6513514 C4.95153809,12.6513514 4.88403319,12.6504314 4.81665037,12.6485913 C5.11071778,12.4737835 5.390625,12.2780777 5.64733887,12.0608166 C6.29260253,11.4154736 6.58056641,10.5979515 6.6875,9.69315696 C6.6875,9.69315696 6.16149903,9.76202859 5.5625,9.75769127 C5.09838869,9.75427399 4.59057619,9.71326645 4.24926756,9.5225551 C5.09863281,9.11142824 5.54504394,8.42980932 5.72668456,7.57062253 C5,7.63791696 3.3125,7.23415042 2.70715331,6.71498445 C3.375,6.46026456 4,5.92190918 4.25,5.48449544 C4.25,5.48449544 3.0625,4.87884563 2.22424316,3.580405 C3.852417,4.83126639 5.79138184,5.57295079 7.81652831,5.6821728 L9.46875,5.75367313 L9.12695312,4.17435715 L9.06311034,3.86114892 C9.04162597,3.73418329 9.03112794,3.62653849 9.03125,3.53492871 C9.03198244,2.94215946 9.27038575,2.36121933 9.68505859,1.94128635 C10.0751953,1.54619451 10.5596924,1.34588845 11.125,1.34588845 C11.5426025,1.34588845 11.9549561,1.4996667 12.2972412,1.77646761 C12.84375,2.28801037 13.125,2.96095459 13.125,3.94171824 C13.125,4.94811158 12.9396972,6.0086559 12.5892334,7.00860896 Z"/>
</svg>
